<svg width="613" height="66" viewBox="0 0 613 66" fill="none" xmlns="http://www.w3.org/2000/svg">
<path d="M12.23 20L7.991 12.764H3.536V20H1.025V1.1H8.585C10.205 1.1 11.591 1.676 12.743 2.828C13.895 3.962 14.471 5.339 14.471 6.959C14.471 8.183 14.102 9.299 13.364 10.307C12.644 11.315 11.708 12.026 10.556 12.44L15.011 20H12.23ZM3.536 3.449V10.496H8.585C9.521 10.496 10.313 10.154 10.961 9.47C11.627 8.768 11.96 7.931 11.96 6.959C11.96 5.987 11.627 5.159 10.961 4.475C10.313 3.791 9.521 3.449 8.585 3.449H3.536ZM18.2493 14.33C18.4833 15.536 19.0323 16.472 19.8963 17.138C20.7783 17.804 21.8583 18.137 23.1363 18.137C24.9183 18.137 26.2143 17.48 27.0243 16.166L29.0223 17.3C27.7083 19.334 25.7283 20.351 23.0823 20.351C20.9403 20.351 19.1943 19.685 17.8443 18.353C16.5123 17.003 15.8463 15.302 15.8463 13.25C15.8463 11.216 16.5033 9.524 17.8173 8.174C19.1313 6.824 20.8323 6.149 22.9203 6.149C24.9003 6.149 26.5113 6.851 27.7533 8.255C29.0133 9.641 29.6433 11.315 29.6433 13.277C29.6433 13.619 29.6163 13.97 29.5623 14.33H18.2493ZM22.9203 8.363C21.6603 8.363 20.6163 8.723 19.7883 9.443C18.9603 10.145 18.4473 11.09 18.2493 12.278H27.2673C27.0693 11 26.5653 10.028 25.7553 9.362C24.9453 8.696 24.0003 8.363 22.9203 8.363ZM43.4952 6.5H45.8442V20H43.4952V17.678C42.3252 19.46 40.6242 20.351 38.3922 20.351C36.5022 20.351 34.8912 19.667 33.5592 18.299C32.2272 16.913 31.5612 15.23 31.5612 13.25C31.5612 11.27 32.2272 9.596 33.5592 8.228C34.8912 6.842 36.5022 6.149 38.3922 6.149C40.6242 6.149 42.3252 7.04 43.4952 8.822V6.5ZM38.6892 18.083C40.0572 18.083 41.2002 17.624 42.1182 16.706C43.0362 15.77 43.4952 14.618 43.4952 13.25C43.4952 11.882 43.0362 10.739 42.1182 9.821C41.2002 8.885 40.0572 8.417 38.6892 8.417C37.3392 8.417 36.2052 8.885 35.2872 9.821C34.3692 10.739 33.9102 11.882 33.9102 13.25C33.9102 14.618 34.3692 15.77 35.2872 16.706C36.2052 17.624 37.3392 18.083 38.6892 18.083ZM60.5811 1.1H62.9301V20H60.5811V17.678C59.4111 19.46 57.7101 20.351 55.4781 20.351C53.5881 20.351 51.9771 19.667 50.6451 18.299C49.3131 16.913 48.6471 15.23 48.6471 13.25C48.6471 11.27 49.3131 9.596 50.6451 8.228C51.9771 6.842 53.5881 6.149 55.4781 6.149C57.7101 6.149 59.4111 7.04 60.5811 8.822V1.1ZM55.7751 18.083C57.1431 18.083 58.2861 17.624 59.2041 16.706C60.1221 15.77 60.5811 14.618 60.5811 13.25C60.5811 11.882 60.1221 10.739 59.2041 9.821C58.2861 8.885 57.1431 8.417 55.7751 8.417C54.4251 8.417 53.2911 8.885 52.3731 9.821C51.4551 10.739 50.9961 11.882 50.9961 13.25C50.9961 14.618 51.4551 15.77 52.3731 16.706C53.2911 17.624 54.4251 18.083 55.7751 18.083ZM67.677 4.043C67.227 4.043 66.849 3.89 66.543 3.584C66.237 3.278 66.084 2.909 66.084 2.477C66.084 2.045 66.237 1.676 66.543 1.37C66.849 1.046 67.227 0.884 67.677 0.884C68.109 0.884 68.478 1.046 68.784 1.37C69.09 1.676 69.243 2.045 69.243 2.477C69.243 2.909 69.09 3.278 68.784 3.584C68.478 3.89 68.109 4.043 67.677 4.043ZM66.489 20V6.5H68.838V20H66.489ZM72.4216 20V0.289999H74.7706V20H72.4216ZM87.7773 6.5H90.2883L84.7803 20.837C84.2043 22.367 83.3943 23.528 82.3503 24.32C81.3243 25.13 80.1363 25.49 78.7863 25.4V23.213C80.4423 23.339 81.6573 22.421 82.4313 20.459L82.6743 19.946L76.7883 6.5H79.2993L83.8893 17.084L87.7773 6.5ZM110.178 6.5H112.527V20H110.178V17.678C109.008 19.46 107.307 20.351 105.075 20.351C103.185 20.351 101.574 19.667 100.242 18.299C98.9098 16.913 98.2438 15.23 98.2438 13.25C98.2438 11.27 98.9098 9.596 100.242 8.228C101.574 6.842 103.185 6.149 105.075 6.149C107.307 6.149 109.008 7.04 110.178 8.822V6.5ZM105.372 18.083C106.74 18.083 107.883 17.624 108.801 16.706C109.719 15.77 110.178 14.618 110.178 13.25C110.178 11.882 109.719 10.739 108.801 9.821C107.883 8.885 106.74 8.417 105.372 8.417C104.022 8.417 102.888 8.885 101.97 9.821C101.052 10.739 100.593 11.882 100.593 13.25C100.593 14.618 101.052 15.77 101.97 16.706C102.888 17.624 104.022 18.083 105.372 18.083ZM125.536 6.5H128.074L122.674 20H119.92L114.52 6.5H117.058L121.297 17.489L125.536 6.5ZM140.711 6.5H143.06V20H140.711V17.678C139.541 19.46 137.84 20.351 135.608 20.351C133.718 20.351 132.107 19.667 130.775 18.299C129.443 16.913 128.777 15.23 128.777 13.25C128.777 11.27 129.443 9.596 130.775 8.228C132.107 6.842 133.718 6.149 135.608 6.149C137.84 6.149 139.541 7.04 140.711 8.822V6.5ZM135.905 18.083C137.273 18.083 138.416 17.624 139.334 16.706C140.252 15.77 140.711 14.618 140.711 13.25C140.711 11.882 140.252 10.739 139.334 9.821C138.416 8.885 137.273 8.417 135.905 8.417C134.555 8.417 133.421 8.885 132.503 9.821C131.585 10.739 131.126 11.882 131.126 13.25C131.126 14.618 131.585 15.77 132.503 16.706C133.421 17.624 134.555 18.083 135.905 18.083ZM147.807 4.043C147.357 4.043 146.979 3.89 146.673 3.584C146.367 3.278 146.214 2.909 146.214 2.477C146.214 2.045 146.367 1.676 146.673 1.37C146.979 1.046 147.357 0.884 147.807 0.884C148.239 0.884 148.608 1.046 148.914 1.37C149.22 1.676 149.373 2.045 149.373 2.477C149.373 2.909 149.22 3.278 148.914 3.584C148.608 3.89 148.239 4.043 147.807 4.043ZM146.619 20V6.5H148.968V20H146.619ZM152.552 20V0.289999H154.901V20H152.552ZM169.662 6.5H172.011V20H169.662V17.678C168.492 19.46 166.791 20.351 164.559 20.351C162.669 20.351 161.058 19.667 159.726 18.299C158.394 16.913 157.728 15.23 157.728 13.25C157.728 11.27 158.394 9.596 159.726 8.228C161.058 6.842 162.669 6.149 164.559 6.149C166.791 6.149 168.492 7.04 169.662 8.822V6.5ZM164.856 18.083C166.224 18.083 167.367 17.624 168.285 16.706C169.203 15.77 169.662 14.618 169.662 13.25C169.662 11.882 169.203 10.739 168.285 9.821C167.367 8.885 166.224 8.417 164.856 8.417C163.506 8.417 162.372 8.885 161.454 9.821C160.536 10.739 160.077 11.882 160.077 13.25C160.077 14.618 160.536 15.77 161.454 16.706C162.372 17.624 163.506 18.083 164.856 18.083ZM183.022 6.149C184.912 6.149 186.523 6.842 187.855 8.228C189.187 9.596 189.853 11.27 189.853 13.25C189.853 15.23 189.187 16.913 187.855 18.299C186.523 19.667 184.912 20.351 183.022 20.351C180.79 20.351 179.089 19.46 177.919 17.678V20H175.57V1.1H177.919V8.822C179.089 7.04 180.79 6.149 183.022 6.149ZM182.725 18.083C184.075 18.083 185.209 17.624 186.127 16.706C187.045 15.77 187.504 14.618 187.504 13.25C187.504 11.882 187.045 10.739 186.127 9.821C185.209 8.885 184.075 8.417 182.725 8.417C181.357 8.417 180.214 8.885 179.296 9.821C178.378 10.739 177.919 11.882 177.919 13.25C177.919 14.618 178.378 15.77 179.296 16.706C180.214 17.624 181.357 18.083 182.725 18.083ZM192.656 20V0.289999H195.005V20H192.656ZM200.236 14.33C200.47 15.536 201.019 16.472 201.883 17.138C202.765 17.804 203.845 18.137 205.123 18.137C206.905 18.137 208.201 17.48 209.011 16.166L211.009 17.3C209.695 19.334 207.715 20.351 205.069 20.351C202.927 20.351 201.181 19.685 199.831 18.353C198.499 17.003 197.833 15.302 197.833 13.25C197.833 11.216 198.49 9.524 199.804 8.174C201.118 6.824 202.819 6.149 204.907 6.149C206.887 6.149 208.498 6.851 209.74 8.255C211 9.641 211.63 11.315 211.63 13.277C211.63 13.619 211.603 13.97 211.549 14.33H200.236ZM204.907 8.363C203.647 8.363 202.603 8.723 201.775 9.443C200.947 10.145 200.434 11.09 200.236 12.278H209.254C209.056 11 208.552 10.028 207.742 9.362C206.932 8.696 205.987 8.363 204.907 8.363ZM228.424 8.768H224.833V16.085C224.833 16.751 224.959 17.228 225.211 17.516C225.481 17.786 225.886 17.93 226.426 17.948C226.966 17.948 227.632 17.93 228.424 17.894V20C226.372 20.27 224.869 20.108 223.915 19.514C222.961 18.902 222.484 17.759 222.484 16.085V8.768H219.811V6.5H222.484V3.422L224.833 2.72V6.5H228.424V8.768ZM241.913 18.299C240.527 19.667 238.844 20.351 236.864 20.351C234.884 20.351 233.201 19.667 231.815 18.299C230.447 16.931 229.763 15.248 229.763 13.25C229.763 11.252 230.447 9.569 231.815 8.201C233.201 6.833 234.884 6.149 236.864 6.149C238.844 6.149 240.527 6.833 241.913 8.201C243.299 9.569 243.992 11.252 243.992 13.25C243.992 15.248 243.299 16.931 241.913 18.299ZM236.864 18.056C238.214 18.056 239.348 17.597 240.266 16.679C241.184 15.761 241.643 14.618 241.643 13.25C241.643 11.882 241.184 10.739 240.266 9.821C239.348 8.903 238.214 8.444 236.864 8.444C235.532 8.444 234.407 8.903 233.489 9.821C232.571 10.739 232.112 11.882 232.112 13.25C232.112 14.618 232.571 15.761 233.489 16.679C234.407 17.597 235.532 18.056 236.864 18.056ZM313.954 20.297C313.468 20.297 313.054 20.126 312.712 19.784C312.37 19.442 312.199 19.028 312.199 18.542C312.199 18.056 312.37 17.642 312.712 17.3C313.054 16.958 313.468 16.787 313.954 16.787C314.458 16.787 314.872 16.958 315.196 17.3C315.538 17.642 315.709 18.056 315.709 18.542C315.709 19.028 315.538 19.442 315.196 19.784C314.872 20.126 314.458 20.297 313.954 20.297ZM339.77 20H336.692L328.538 10.928V20H326.027V1.1H328.538V9.632L336.422 1.1H339.5L331.157 10.28L339.77 20ZM342.95 4.043C342.5 4.043 342.122 3.89 341.816 3.584C341.51 3.278 341.357 2.909 341.357 2.477C341.357 2.045 341.51 1.676 341.816 1.37C342.122 1.046 342.5 0.884 342.95 0.884C343.382 0.884 343.751 1.046 344.057 1.37C344.363 1.676 344.516 2.045 344.516 2.477C344.516 2.909 344.363 3.278 344.057 3.584C343.751 3.89 343.382 4.043 342.95 4.043ZM341.762 20V6.5H344.111V20H341.762ZM354.418 6.149C356.002 6.149 357.271 6.653 358.225 7.661C359.179 8.651 359.656 10.001 359.656 11.711V20H357.307V11.846C357.307 10.748 357.01 9.902 356.416 9.308C355.822 8.696 355.003 8.39 353.959 8.39C352.789 8.39 351.844 8.759 351.124 9.497C350.404 10.217 350.044 11.333 350.044 12.845V20H347.695V6.5H350.044V8.444C350.998 6.914 352.456 6.149 354.418 6.149ZM374.113 1.1H376.462V20H374.113V17.678C372.943 19.46 371.242 20.351 369.01 20.351C367.12 20.351 365.509 19.667 364.177 18.299C362.845 16.913 362.179 15.23 362.179 13.25C362.179 11.27 362.845 9.596 364.177 8.228C365.509 6.842 367.12 6.149 369.01 6.149C371.242 6.149 372.943 7.04 374.113 8.822V1.1ZM369.307 18.083C370.675 18.083 371.818 17.624 372.736 16.706C373.654 15.77 374.113 14.618 374.113 13.25C374.113 11.882 373.654 10.739 372.736 9.821C371.818 8.885 370.675 8.417 369.307 8.417C367.957 8.417 366.823 8.885 365.905 9.821C364.987 10.739 364.528 11.882 364.528 13.25C364.528 14.618 364.987 15.77 365.905 16.706C366.823 17.624 367.957 18.083 369.307 18.083ZM380.021 20V0.289999H382.37V20H380.021ZM395.377 6.5H397.888L392.38 20.837C391.804 22.367 390.994 23.528 389.95 24.32C388.924 25.13 387.736 25.49 386.386 25.4V23.213C388.042 23.339 389.257 22.421 390.031 20.459L390.274 19.946L384.388 6.5H386.899L391.489 17.084L395.377 6.5Z" fill="#576172"/>
<path d="M269.414 6.5H271.871L267.686 20H265.283L262.124 10.01L258.965 20H256.562L252.377 6.5H254.834L257.804 16.76L260.99 6.5H263.258L266.444 16.787L269.414 6.5ZM285.155 18.299C283.769 19.667 282.086 20.351 280.106 20.351C278.126 20.351 276.443 19.667 275.057 18.299C273.689 16.931 273.005 15.248 273.005 13.25C273.005 11.252 273.689 9.569 275.057 8.201C276.443 6.833 278.126 6.149 280.106 6.149C282.086 6.149 283.769 6.833 285.155 8.201C286.541 9.569 287.234 11.252 287.234 13.25C287.234 15.248 286.541 16.931 285.155 18.299ZM280.106 18.056C281.456 18.056 282.59 17.597 283.508 16.679C284.426 15.761 284.885 14.618 284.885 13.25C284.885 11.882 284.426 10.739 283.508 9.821C282.59 8.903 281.456 8.444 280.106 8.444C278.774 8.444 277.649 8.903 276.731 9.821C275.813 10.739 275.354 11.882 275.354 13.25C275.354 14.618 275.813 15.761 276.731 16.679C277.649 17.597 278.774 18.056 280.106 18.056ZM292.353 8.768C293.127 7.094 294.531 6.257 296.565 6.257V8.714C295.413 8.66 294.423 8.966 293.595 9.632C292.767 10.298 292.353 11.369 292.353 12.845V20H290.004V6.5H292.353V8.768ZM310.284 20H307.368L301.212 13.601V20H298.863V1.1H301.212V12.467L307.044 6.5H310.068L303.615 13.034L310.284 20Z" fill="#E9B93F"/>
<path d="M408.624 10.145C408.624 10.667 408.885 11.09 409.407 11.414C409.929 11.72 410.559 11.972 411.297 12.17C412.035 12.35 412.773 12.566 413.511 12.818C414.249 13.052 414.879 13.466 415.401 14.06C415.923 14.636 416.184 15.383 416.184 16.301C416.184 17.525 415.707 18.506 414.753 19.244C413.817 19.982 412.611 20.351 411.135 20.351C409.821 20.351 408.696 20.063 407.76 19.487C406.824 18.911 406.158 18.146 405.762 17.192L407.787 16.031C408.003 16.679 408.408 17.192 409.002 17.57C409.596 17.948 410.307 18.137 411.135 18.137C411.909 18.137 412.548 17.993 413.052 17.705C413.556 17.399 413.808 16.931 413.808 16.301C413.808 15.779 413.547 15.365 413.025 15.059C412.503 14.735 411.873 14.483 411.135 14.303C410.397 14.105 409.659 13.88 408.921 13.628C408.183 13.376 407.553 12.962 407.031 12.386C406.509 11.81 406.248 11.072 406.248 10.172C406.248 9.002 406.698 8.039 407.598 7.283C408.516 6.527 409.659 6.149 411.027 6.149C412.125 6.149 413.097 6.401 413.943 6.905C414.807 7.391 415.455 8.075 415.887 8.957L413.916 10.064C413.43 8.912 412.467 8.336 411.027 8.336C410.361 8.336 409.794 8.498 409.326 8.822C408.858 9.128 408.624 9.569 408.624 10.145ZM420.243 14.33C420.477 15.536 421.026 16.472 421.89 17.138C422.772 17.804 423.852 18.137 425.13 18.137C426.912 18.137 428.208 17.48 429.018 16.166L431.016 17.3C429.702 19.334 427.722 20.351 425.076 20.351C422.934 20.351 421.188 19.685 419.838 18.353C418.506 17.003 417.84 15.302 417.84 13.25C417.84 11.216 418.497 9.524 419.811 8.174C421.125 6.824 422.826 6.149 424.914 6.149C426.894 6.149 428.505 6.851 429.747 8.255C431.007 9.641 431.637 11.315 431.637 13.277C431.637 13.619 431.61 13.97 431.556 14.33H420.243ZM424.914 8.363C423.654 8.363 422.61 8.723 421.782 9.443C420.954 10.145 420.441 11.09 420.243 12.278H429.261C429.063 11 428.559 10.028 427.749 9.362C426.939 8.696 425.994 8.363 424.914 8.363ZM441.061 6.149C442.645 6.149 443.914 6.653 444.868 7.661C445.822 8.651 446.299 10.001 446.299 11.711V20H443.95V11.846C443.95 10.748 443.653 9.902 443.059 9.308C442.465 8.696 441.646 8.39 440.602 8.39C439.432 8.39 438.487 8.759 437.767 9.497C437.047 10.217 436.687 11.333 436.687 12.845V20H434.338V6.5H436.687V8.444C437.641 6.914 439.099 6.149 441.061 6.149ZM460.756 1.1H463.105V20H460.756V17.678C459.586 19.46 457.885 20.351 455.653 20.351C453.763 20.351 452.152 19.667 450.82 18.299C449.488 16.913 448.822 15.23 448.822 13.25C448.822 11.27 449.488 9.596 450.82 8.228C452.152 6.842 453.763 6.149 455.653 6.149C457.885 6.149 459.586 7.04 460.756 8.822V1.1ZM455.95 18.083C457.318 18.083 458.461 17.624 459.379 16.706C460.297 15.77 460.756 14.618 460.756 13.25C460.756 11.882 460.297 10.739 459.379 9.821C458.461 8.885 457.318 8.417 455.95 8.417C454.6 8.417 453.466 8.885 452.548 9.821C451.63 10.739 451.171 11.882 451.171 13.25C451.171 14.618 451.63 15.77 452.548 16.706C453.466 17.624 454.6 18.083 455.95 18.083ZM491.342 6.5H493.691V20H491.342V17.678C490.172 19.46 488.471 20.351 486.239 20.351C484.349 20.351 482.738 19.667 481.406 18.299C480.074 16.913 479.408 15.23 479.408 13.25C479.408 11.27 480.074 9.596 481.406 8.228C482.738 6.842 484.349 6.149 486.239 6.149C488.471 6.149 490.172 7.04 491.342 8.822V6.5ZM486.536 18.083C487.904 18.083 489.047 17.624 489.965 16.706C490.883 15.77 491.342 14.618 491.342 13.25C491.342 11.882 490.883 10.739 489.965 9.821C489.047 8.885 487.904 8.417 486.536 8.417C485.186 8.417 484.052 8.885 483.134 9.821C482.216 10.739 481.757 11.882 481.757 13.25C481.757 14.618 482.216 15.77 483.134 16.706C484.052 17.624 485.186 18.083 486.536 18.083ZM518.58 6.149C520.092 6.149 521.316 6.644 522.252 7.634C523.188 8.606 523.656 9.929 523.656 11.603V20H521.307V11.684C521.307 10.64 521.037 9.83 520.497 9.254C519.957 8.678 519.237 8.39 518.337 8.39C517.329 8.39 516.519 8.732 515.907 9.416C515.313 10.082 515.016 11.108 515.016 12.494V20H512.667V11.684C512.667 10.64 512.406 9.83 511.884 9.254C511.38 8.678 510.687 8.39 509.805 8.39C508.815 8.39 507.987 8.732 507.321 9.416C506.673 10.1 506.349 11.126 506.349 12.494V20H504V6.5H506.349V8.309C507.267 6.869 508.608 6.149 510.372 6.149C512.19 6.149 513.513 6.914 514.341 8.444C515.277 6.914 516.69 6.149 518.58 6.149ZM528.56 14.33C528.794 15.536 529.343 16.472 530.207 17.138C531.089 17.804 532.169 18.137 533.447 18.137C535.229 18.137 536.525 17.48 537.335 16.166L539.333 17.3C538.019 19.334 536.039 20.351 533.393 20.351C531.251 20.351 529.505 19.685 528.155 18.353C526.823 17.003 526.157 15.302 526.157 13.25C526.157 11.216 526.814 9.524 528.128 8.174C529.442 6.824 531.143 6.149 533.231 6.149C535.211 6.149 536.822 6.851 538.064 8.255C539.324 9.641 539.954 11.315 539.954 13.277C539.954 13.619 539.927 13.97 539.873 14.33H528.56ZM533.231 8.363C531.971 8.363 530.927 8.723 530.099 9.443C529.271 10.145 528.758 11.09 528.56 12.278H537.578C537.38 11 536.876 10.028 536.066 9.362C535.256 8.696 534.311 8.363 533.231 8.363ZM544.152 10.145C544.152 10.667 544.413 11.09 544.935 11.414C545.457 11.72 546.087 11.972 546.825 12.17C547.563 12.35 548.301 12.566 549.039 12.818C549.777 13.052 550.407 13.466 550.929 14.06C551.451 14.636 551.712 15.383 551.712 16.301C551.712 17.525 551.235 18.506 550.281 19.244C549.345 19.982 548.139 20.351 546.663 20.351C545.349 20.351 544.224 20.063 543.288 19.487C542.352 18.911 541.686 18.146 541.29 17.192L543.315 16.031C543.531 16.679 543.936 17.192 544.53 17.57C545.124 17.948 545.835 18.137 546.663 18.137C547.437 18.137 548.076 17.993 548.58 17.705C549.084 17.399 549.336 16.931 549.336 16.301C549.336 15.779 549.075 15.365 548.553 15.059C548.031 14.735 547.401 14.483 546.663 14.303C545.925 14.105 545.187 13.88 544.449 13.628C543.711 13.376 543.081 12.962 542.559 12.386C542.037 11.81 541.776 11.072 541.776 10.172C541.776 9.002 542.226 8.039 543.126 7.283C544.044 6.527 545.187 6.149 546.555 6.149C547.653 6.149 548.625 6.401 549.471 6.905C550.335 7.391 550.983 8.075 551.415 8.957L549.444 10.064C548.958 8.912 547.995 8.336 546.555 8.336C545.889 8.336 545.322 8.498 544.854 8.822C544.386 9.128 544.152 9.569 544.152 10.145ZM555.674 10.145C555.674 10.667 555.935 11.09 556.457 11.414C556.979 11.72 557.609 11.972 558.347 12.17C559.085 12.35 559.823 12.566 560.561 12.818C561.299 13.052 561.929 13.466 562.451 14.06C562.973 14.636 563.234 15.383 563.234 16.301C563.234 17.525 562.757 18.506 561.803 19.244C560.867 19.982 559.661 20.351 558.185 20.351C556.871 20.351 555.746 20.063 554.81 19.487C553.874 18.911 553.208 18.146 552.812 17.192L554.837 16.031C555.053 16.679 555.458 17.192 556.052 17.57C556.646 17.948 557.357 18.137 558.185 18.137C558.959 18.137 559.598 17.993 560.102 17.705C560.606 17.399 560.858 16.931 560.858 16.301C560.858 15.779 560.597 15.365 560.075 15.059C559.553 14.735 558.923 14.483 558.185 14.303C557.447 14.105 556.709 13.88 555.971 13.628C555.233 13.376 554.603 12.962 554.081 12.386C553.559 11.81 553.298 11.072 553.298 10.172C553.298 9.002 553.748 8.039 554.648 7.283C555.566 6.527 556.709 6.149 558.077 6.149C559.175 6.149 560.147 6.401 560.993 6.905C561.857 7.391 562.505 8.075 562.937 8.957L560.966 10.064C560.48 8.912 559.517 8.336 558.077 8.336C557.411 8.336 556.844 8.498 556.376 8.822C555.908 9.128 555.674 9.569 555.674 10.145ZM576.824 6.5H579.173V20H576.824V17.678C575.654 19.46 573.953 20.351 571.721 20.351C569.831 20.351 568.22 19.667 566.888 18.299C565.556 16.913 564.89 15.23 564.89 13.25C564.89 11.27 565.556 9.596 566.888 8.228C568.22 6.842 569.831 6.149 571.721 6.149C573.953 6.149 575.654 7.04 576.824 8.822V6.5ZM572.018 18.083C573.386 18.083 574.529 17.624 575.447 16.706C576.365 15.77 576.824 14.618 576.824 13.25C576.824 11.882 576.365 10.739 575.447 9.821C574.529 8.885 573.386 8.417 572.018 8.417C570.668 8.417 569.534 8.885 568.616 9.821C567.698 10.739 567.239 11.882 567.239 13.25C567.239 14.618 567.698 15.77 568.616 16.706C569.534 17.624 570.668 18.083 572.018 18.083ZM593.937 6.5H596.259V19.433C596.259 21.431 595.584 22.979 594.234 24.077C592.884 25.193 591.264 25.751 589.374 25.751C587.862 25.751 586.557 25.463 585.459 24.887C584.361 24.329 583.533 23.519 582.975 22.457L585.027 21.296C585.765 22.808 587.232 23.564 589.428 23.564C590.832 23.564 591.93 23.195 592.722 22.457C593.532 21.719 593.937 20.711 593.937 19.433V17.516C592.749 19.316 591.057 20.216 588.861 20.216C586.935 20.216 585.306 19.532 583.974 18.164C582.642 16.796 581.976 15.131 581.976 13.169C581.976 11.207 582.642 9.551 583.974 8.201C585.306 6.833 586.935 6.149 588.861 6.149C591.075 6.149 592.767 7.04 593.937 8.822V6.5ZM585.702 16.598C586.62 17.516 587.763 17.975 589.131 17.975C590.499 17.975 591.642 17.516 592.56 16.598C593.478 15.68 593.937 14.537 593.937 13.169C593.937 11.819 593.478 10.685 592.56 9.767C591.642 8.849 590.499 8.39 589.131 8.39C587.763 8.39 586.62 8.849 585.702 9.767C584.784 10.685 584.325 11.819 584.325 13.169C584.325 14.537 584.784 15.68 585.702 16.598ZM601.465 14.33C601.699 15.536 602.248 16.472 603.112 17.138C603.994 17.804 605.074 18.137 606.352 18.137C608.134 18.137 609.43 17.48 610.24 16.166L612.238 17.3C610.924 19.334 608.944 20.351 606.298 20.351C604.156 20.351 602.41 19.685 601.06 18.353C599.728 17.003 599.062 15.302 599.062 13.25C599.062 11.216 599.719 9.524 601.033 8.174C602.347 6.824 604.048 6.149 606.136 6.149C608.116 6.149 609.727 6.851 610.969 8.255C612.229 9.641 612.859 11.315 612.859 13.277C612.859 13.619 612.832 13.97 612.778 14.33H601.465ZM606.136 8.363C604.876 8.363 603.832 8.723 603.004 9.443C602.176 10.145 601.663 11.09 601.465 12.278H610.483C610.285 11 609.781 10.028 608.971 9.362C608.161 8.696 607.216 8.363 606.136 8.363ZM11.96 46.5H14.309V60H11.96V57.678C10.79 59.46 9.089 60.351 6.857 60.351C4.967 60.351 3.356 59.667 2.024 58.299C0.692 56.913 0.0260001 55.23 0.0260001 53.25C0.0260001 51.27 0.692 49.596 2.024 48.228C3.356 46.842 4.967 46.149 6.857 46.149C9.089 46.149 10.79 47.04 11.96 48.822V46.5ZM7.154 58.083C8.522 58.083 9.665 57.624 10.583 56.706C11.501 55.77 11.96 54.618 11.96 53.25C11.96 51.882 11.501 50.739 10.583 49.821C9.665 48.885 8.522 48.417 7.154 48.417C5.804 48.417 4.67 48.885 3.752 49.821C2.834 50.739 2.375 51.882 2.375 53.25C2.375 54.618 2.834 55.77 3.752 56.706C4.67 57.624 5.804 58.083 7.154 58.083ZM24.5909 46.149C26.1749 46.149 27.4439 46.653 28.3979 47.661C29.3519 48.651 29.8289 50.001 29.8289 51.711V60H27.4799V51.846C27.4799 50.748 27.1829 49.902 26.5889 49.308C25.9949 48.696 25.1759 48.39 24.1319 48.39C22.9619 48.39 22.0169 48.759 21.2969 49.497C20.5769 50.217 20.2169 51.333 20.2169 52.845V60H17.8679V46.5H20.2169V48.444C21.1709 46.914 22.6289 46.149 24.5909 46.149ZM44.2862 41.1H46.6352V60H44.2862V57.678C43.1162 59.46 41.4152 60.351 39.1832 60.351C37.2932 60.351 35.6822 59.667 34.3502 58.299C33.0182 56.913 32.3522 55.23 32.3522 53.25C32.3522 51.27 33.0182 49.596 34.3502 48.228C35.6822 46.842 37.2932 46.149 39.1832 46.149C41.4152 46.149 43.1162 47.04 44.2862 48.822V41.1ZM39.4802 58.083C40.8482 58.083 41.9912 57.624 42.9092 56.706C43.8272 55.77 44.2862 54.618 44.2862 53.25C44.2862 51.882 43.8272 50.739 42.9092 49.821C41.9912 48.885 40.8482 48.417 39.4802 48.417C38.1302 48.417 36.9962 48.885 36.0782 49.821C35.1602 50.739 34.7012 51.882 34.7012 53.25C34.7012 54.618 35.1602 55.77 36.0782 56.706C36.9962 57.624 38.1302 58.083 39.4802 58.083ZM56.9441 60V40.29H59.2931V60H56.9441ZM64.5237 54.33C64.7577 55.536 65.3067 56.472 66.1707 57.138C67.0527 57.804 68.1327 58.137 69.4107 58.137C71.1927 58.137 72.4887 57.48 73.2987 56.166L75.2967 57.3C73.9827 59.334 72.0027 60.351 69.3567 60.351C67.2147 60.351 65.4687 59.685 64.1187 58.353C62.7867 57.003 62.1207 55.302 62.1207 53.25C62.1207 51.216 62.7777 49.524 64.0917 48.174C65.4057 46.824 67.1067 46.149 69.1947 46.149C71.1747 46.149 72.7857 46.851 74.0277 48.255C75.2877 49.641 75.9177 51.315 75.9177 53.277C75.9177 53.619 75.8907 53.97 75.8367 54.33H64.5237ZM69.1947 48.363C67.9347 48.363 66.8907 48.723 66.0627 49.443C65.2347 50.145 64.7217 51.09 64.5237 52.278H73.5417C73.3437 51 72.8397 50.028 72.0297 49.362C71.2197 48.696 70.2747 48.363 69.1947 48.363ZM85.5664 48.768H81.9754V56.085C81.9754 56.751 82.1014 57.228 82.3534 57.516C82.6234 57.786 83.0284 57.93 83.5684 57.948C84.1084 57.948 84.7744 57.93 85.5664 57.894V60C83.5144 60.27 82.0114 60.108 81.0574 59.514C80.1034 58.902 79.6264 57.759 79.6264 56.085V48.768H76.9534V46.5H79.6264V43.422L81.9754 42.72V46.5H85.5664V48.768ZM92.2266 41.073L90.4716 47.634H88.4466L89.5266 41.073H92.2266ZM95.4086 50.145C95.4086 50.667 95.6696 51.09 96.1916 51.414C96.7136 51.72 97.3436 51.972 98.0816 52.17C98.8196 52.35 99.5576 52.566 100.296 52.818C101.034 53.052 101.664 53.466 102.186 54.06C102.708 54.636 102.969 55.383 102.969 56.301C102.969 57.525 102.492 58.506 101.538 59.244C100.602 59.982 99.3956 60.351 97.9196 60.351C96.6056 60.351 95.4806 60.063 94.5446 59.487C93.6086 58.911 92.9426 58.146 92.5466 57.192L94.5716 56.031C94.7876 56.679 95.1926 57.192 95.7866 57.57C96.3806 57.948 97.0916 58.137 97.9196 58.137C98.6936 58.137 99.3326 57.993 99.8366 57.705C100.341 57.399 100.593 56.931 100.593 56.301C100.593 55.779 100.332 55.365 99.8096 55.059C99.2876 54.735 98.6576 54.483 97.9196 54.303C97.1816 54.105 96.4436 53.88 95.7056 53.628C94.9676 53.376 94.3376 52.962 93.8156 52.386C93.2936 51.81 93.0326 51.072 93.0326 50.172C93.0326 49.002 93.4826 48.039 94.3826 47.283C95.3006 46.527 96.4436 46.149 97.8116 46.149C98.9096 46.149 99.8816 46.401 100.728 46.905C101.592 47.391 102.24 48.075 102.672 48.957L100.701 50.064C100.215 48.912 99.2516 48.336 97.8116 48.336C97.1456 48.336 96.5786 48.498 96.1106 48.822C95.6426 49.128 95.4086 49.569 95.4086 50.145ZM118.845 60.351C116.811 60.351 115.119 59.676 113.769 58.326C112.419 56.958 111.744 55.266 111.744 53.25C111.744 51.234 112.419 49.551 113.769 48.201C115.119 46.833 116.811 46.149 118.845 46.149C120.177 46.149 121.374 46.473 122.436 47.121C123.498 47.751 124.29 48.606 124.812 49.686L122.841 50.82C122.499 50.1 121.968 49.524 121.248 49.092C120.546 48.66 119.745 48.444 118.845 48.444C117.495 48.444 116.361 48.903 115.443 49.821C114.543 50.739 114.093 51.882 114.093 53.25C114.093 54.6 114.543 55.734 115.443 56.652C116.361 57.57 117.495 58.029 118.845 58.029C119.745 58.029 120.555 57.822 121.275 57.408C121.995 56.976 122.544 56.4 122.922 55.68L124.92 56.841C124.344 57.903 123.516 58.758 122.436 59.406C121.356 60.036 120.159 60.351 118.845 60.351ZM129.614 48.768C130.388 47.094 131.792 46.257 133.826 46.257V48.714C132.674 48.66 131.684 48.966 130.856 49.632C130.028 50.298 129.614 51.369 129.614 52.845V60H127.265V46.5H129.614V48.768ZM137.033 54.33C137.267 55.536 137.816 56.472 138.68 57.138C139.562 57.804 140.642 58.137 141.92 58.137C143.702 58.137 144.998 57.48 145.808 56.166L147.806 57.3C146.492 59.334 144.512 60.351 141.866 60.351C139.724 60.351 137.978 59.685 136.628 58.353C135.296 57.003 134.63 55.302 134.63 53.25C134.63 51.216 135.287 49.524 136.601 48.174C137.915 46.824 139.616 46.149 141.704 46.149C143.684 46.149 145.295 46.851 146.537 48.255C147.797 49.641 148.427 51.315 148.427 53.277C148.427 53.619 148.4 53.97 148.346 54.33H137.033ZM141.704 48.363C140.444 48.363 139.4 48.723 138.572 49.443C137.744 50.145 137.231 51.09 137.033 52.278H146.051C145.853 51 145.349 50.028 144.539 49.362C143.729 48.696 142.784 48.363 141.704 48.363ZM162.279 46.5H164.628V60H162.279V57.678C161.109 59.46 159.408 60.351 157.176 60.351C155.286 60.351 153.675 59.667 152.343 58.299C151.011 56.913 150.345 55.23 150.345 53.25C150.345 51.27 151.011 49.596 152.343 48.228C153.675 46.842 155.286 46.149 157.176 46.149C159.408 46.149 161.109 47.04 162.279 48.822V46.5ZM157.473 58.083C158.841 58.083 159.984 57.624 160.902 56.706C161.82 55.77 162.279 54.618 162.279 53.25C162.279 51.882 161.82 50.739 160.902 49.821C159.984 48.885 158.841 48.417 157.473 48.417C156.123 48.417 154.989 48.885 154.071 49.821C153.153 50.739 152.694 51.882 152.694 53.25C152.694 54.618 153.153 55.77 154.071 56.706C154.989 57.624 156.123 58.083 157.473 58.083ZM175.531 48.768H171.94V56.085C171.94 56.751 172.066 57.228 172.318 57.516C172.588 57.786 172.993 57.93 173.533 57.948C174.073 57.948 174.739 57.93 175.531 57.894V60C173.479 60.27 171.976 60.108 171.022 59.514C170.068 58.902 169.591 57.759 169.591 56.085V48.768H166.918V46.5H169.591V43.422L171.94 42.72V46.5H175.531V48.768ZM179.274 54.33C179.508 55.536 180.057 56.472 180.921 57.138C181.803 57.804 182.883 58.137 184.161 58.137C185.943 58.137 187.239 57.48 188.049 56.166L190.047 57.3C188.733 59.334 186.753 60.351 184.107 60.351C181.965 60.351 180.219 59.685 178.869 58.353C177.537 57.003 176.871 55.302 176.871 53.25C176.871 51.216 177.528 49.524 178.842 48.174C180.156 46.824 181.857 46.149 183.945 46.149C185.925 46.149 187.536 46.851 188.778 48.255C190.038 49.641 190.668 51.315 190.668 53.277C190.668 53.619 190.641 53.97 190.587 54.33H179.274ZM183.945 48.363C182.685 48.363 181.641 48.723 180.813 49.443C179.985 50.145 179.472 51.09 179.274 52.278H188.292C188.094 51 187.59 50.028 186.78 49.362C185.97 48.696 185.025 48.363 183.945 48.363ZM214.698 46.149C216.21 46.149 217.434 46.644 218.37 47.634C219.306 48.606 219.774 49.929 219.774 51.603V60H217.425V51.684C217.425 50.64 217.155 49.83 216.615 49.254C216.075 48.678 215.355 48.39 214.455 48.39C213.447 48.39 212.637 48.732 212.025 49.416C211.431 50.082 211.134 51.108 211.134 52.494V60H208.785V51.684C208.785 50.64 208.524 49.83 208.002 49.254C207.498 48.678 206.805 48.39 205.923 48.39C204.933 48.39 204.105 48.732 203.439 49.416C202.791 50.1 202.467 51.126 202.467 52.494V60H200.118V46.5H202.467V48.309C203.385 46.869 204.726 46.149 206.49 46.149C208.308 46.149 209.631 46.914 210.459 48.444C211.395 46.914 212.808 46.149 214.698 46.149ZM234.209 46.5H236.558V60H234.209V57.678C233.039 59.46 231.338 60.351 229.106 60.351C227.216 60.351 225.605 59.667 224.273 58.299C222.941 56.913 222.275 55.23 222.275 53.25C222.275 51.27 222.941 49.596 224.273 48.228C225.605 46.842 227.216 46.149 229.106 46.149C231.338 46.149 233.039 47.04 234.209 48.822V46.5ZM229.403 58.083C230.771 58.083 231.914 57.624 232.832 56.706C233.75 55.77 234.209 54.618 234.209 53.25C234.209 51.882 233.75 50.739 232.832 49.821C231.914 48.885 230.771 48.417 229.403 48.417C228.053 48.417 226.919 48.885 226.001 49.821C225.083 50.739 224.624 51.882 224.624 53.25C224.624 54.618 225.083 55.77 226.001 56.706C226.919 57.624 228.053 58.083 229.403 58.083ZM251.322 46.5H253.644V59.433C253.644 61.431 252.969 62.979 251.619 64.077C250.269 65.193 248.649 65.751 246.759 65.751C245.247 65.751 243.942 65.463 242.844 64.887C241.746 64.329 240.918 63.519 240.36 62.457L242.412 61.296C243.15 62.808 244.617 63.564 246.813 63.564C248.217 63.564 249.315 63.195 250.107 62.457C250.917 61.719 251.322 60.711 251.322 59.433V57.516C250.134 59.316 248.442 60.216 246.246 60.216C244.32 60.216 242.691 59.532 241.359 58.164C240.027 56.796 239.361 55.131 239.361 53.169C239.361 51.207 240.027 49.551 241.359 48.201C242.691 46.833 244.32 46.149 246.246 46.149C248.46 46.149 250.152 47.04 251.322 48.822V46.5ZM243.087 56.598C244.005 57.516 245.148 57.975 246.516 57.975C247.884 57.975 249.027 57.516 249.945 56.598C250.863 55.68 251.322 54.537 251.322 53.169C251.322 51.819 250.863 50.685 249.945 49.767C249.027 48.849 247.884 48.39 246.516 48.39C245.148 48.39 244.005 48.849 243.087 49.767C242.169 50.685 241.71 51.819 241.71 53.169C241.71 54.537 242.169 55.68 243.087 56.598ZM258.391 44.043C257.941 44.043 257.563 43.89 257.257 43.584C256.951 43.278 256.798 42.909 256.798 42.477C256.798 42.045 256.951 41.676 257.257 41.37C257.563 41.046 257.941 40.884 258.391 40.884C258.823 40.884 259.192 41.046 259.498 41.37C259.804 41.676 259.957 42.045 259.957 42.477C259.957 42.909 259.804 43.278 259.498 43.584C259.192 43.89 258.823 44.043 258.391 44.043ZM257.203 60V46.5H259.552V60H257.203ZM269.481 60.351C267.447 60.351 265.755 59.676 264.405 58.326C263.055 56.958 262.38 55.266 262.38 53.25C262.38 51.234 263.055 49.551 264.405 48.201C265.755 46.833 267.447 46.149 269.481 46.149C270.813 46.149 272.01 46.473 273.072 47.121C274.134 47.751 274.926 48.606 275.448 49.686L273.477 50.82C273.135 50.1 272.604 49.524 271.884 49.092C271.182 48.66 270.381 48.444 269.481 48.444C268.131 48.444 266.997 48.903 266.079 49.821C265.179 50.739 264.729 51.882 264.729 53.25C264.729 54.6 265.179 55.734 266.079 56.652C266.997 57.57 268.131 58.029 269.481 58.029C270.381 58.029 271.191 57.822 271.911 57.408C272.631 56.976 273.18 56.4 273.558 55.68L275.556 56.841C274.98 57.903 274.152 58.758 273.072 59.406C271.992 60.036 270.795 60.351 269.481 60.351Z" fill="#909093"/>
</svg>
