<svg width="64" height="64" viewBox="0 0 64 64" fill="none" xmlns="http://www.w3.org/2000/svg">
<circle cx="32" cy="32" r="31" stroke="#222228" stroke-opacity="0.3" stroke-width="2"/>
<g clip-path="url(#clip0)">
<path d="M33.3038 38.9853L44.6672 27.6217C45.111 27.178 45.111 26.4584 44.6671 26.0146C44.2233 25.5709 43.5038 25.5709 43.06 26.0147L32.5002 36.5748L21.9398 26.0146C21.496 25.5709 20.7766 25.5709 20.3328 26.0147C20.1109 26.2365 20 26.5273 20 26.8182C20 27.109 20.1109 27.3998 20.3329 27.6217L31.6968 38.9853C31.9099 39.1985 32.1989 39.3182 32.5003 39.3182C32.8016 39.3182 33.0907 39.1985 33.3038 38.9853Z" fill="#222228"/>
</g>
<defs>
<clipPath id="clip0">
<rect width="25" height="25" fill="white" transform="translate(45 20) rotate(90)"/>
</clipPath>
</defs>
</svg>
