<svg width="34" height="23" viewBox="0 0 34 23" fill="none" xmlns="http://www.w3.org/2000/svg">
<path fill-rule="evenodd" clip-rule="evenodd" d="M2.01264 0.458679C1.68295 0.458679 1.36676 0.589649 1.13363 0.822778C0.900501 1.05591 0.769531 1.3721 0.769531 1.70179C0.769531 2.03148 0.900501 2.34767 1.13363 2.5808C1.36676 2.81393 1.68295 2.9449 2.01264 2.9449H31.8473C32.1769 2.9449 32.4931 2.81393 32.7263 2.5808C32.9594 2.34767 33.0904 2.03148 33.0904 1.70179C33.0904 1.3721 32.9594 1.05591 32.7263 0.822778C32.4931 0.589649 32.1769 0.458679 31.8473 0.458679H2.01264ZM0.769531 11.6467C0.769531 11.317 0.900501 11.0008 1.13363 10.7677C1.36676 10.5345 1.68295 10.4036 2.01264 10.4036H31.8473C32.1769 10.4036 32.4931 10.5345 32.7263 10.7677C32.9594 11.0008 33.0904 11.317 33.0904 11.6467C33.0904 11.9764 32.9594 12.2925 32.7263 12.5257C32.4931 12.7588 32.1769 12.8898 31.8473 12.8898H2.01264C1.68295 12.8898 1.36676 12.7588 1.13363 12.5257C0.900501 12.2925 0.769531 11.9764 0.769531 11.6467ZM0.769531 21.5915C0.769531 21.2618 0.900501 20.9457 1.13363 20.7125C1.36676 20.4794 1.68295 20.3484 2.01264 20.3484H31.8473C32.1769 20.3484 32.4931 20.4794 32.7263 20.7125C32.9594 20.9457 33.0904 21.2618 33.0904 21.5915C33.0904 21.9212 32.9594 22.2374 32.7263 22.4705C32.4931 22.7037 32.1769 22.8346 31.8473 22.8346H2.01264C1.68295 22.8346 1.36676 22.7037 1.13363 22.4705C0.900501 22.2374 0.769531 21.9212 0.769531 21.5915Z" fill="#E9B93F"/>
</svg>
