<svg width="246" height="18" viewBox="0 0 246 18" fill="none" xmlns="http://www.w3.org/2000/svg">
<path d="M5.418 14.234C4.242 14.234 3.234 13.958 2.394 13.406C1.566 12.854 0.984 12.098 0.648 11.138L2.088 10.31C2.58 11.834 3.702 12.596 5.454 12.596C6.318 12.596 6.978 12.422 7.434 12.074C7.89 11.714 8.118 11.24 8.118 10.652C8.118 10.052 7.89 9.602 7.434 9.302C6.978 9.002 6.216 8.684 5.148 8.348C4.62 8.18 4.218 8.048 3.942 7.952C3.666 7.844 3.318 7.688 2.898 7.484C2.49 7.268 2.184 7.052 1.98 6.836C1.776 6.608 1.59 6.314 1.422 5.954C1.266 5.594 1.188 5.186 1.188 4.73C1.188 3.638 1.572 2.774 2.34 2.138C3.108 1.49 4.044 1.166 5.148 1.166C6.144 1.166 7.008 1.418 7.74 1.922C8.484 2.426 9.042 3.092 9.414 3.92L8.01 4.73C7.47 3.434 6.516 2.786 5.148 2.786C4.464 2.786 3.912 2.954 3.492 3.29C3.072 3.626 2.862 4.082 2.862 4.658C2.862 5.21 3.06 5.63 3.456 5.918C3.852 6.206 4.536 6.506 5.508 6.818C5.856 6.926 6.102 7.004 6.246 7.052C6.39 7.1 6.612 7.184 6.912 7.304C7.224 7.424 7.452 7.52 7.596 7.592C7.74 7.664 7.932 7.766 8.172 7.898C8.424 8.03 8.61 8.156 8.73 8.276C8.85 8.396 8.988 8.546 9.144 8.726C9.312 8.894 9.432 9.068 9.504 9.248C9.576 9.428 9.636 9.638 9.684 9.878C9.744 10.106 9.774 10.352 9.774 10.616C9.774 11.72 9.372 12.602 8.568 13.262C7.764 13.91 6.714 14.234 5.418 14.234ZM16.0352 14.234C14.6792 14.234 13.5512 13.784 12.6512 12.884C11.7512 11.972 11.3012 10.844 11.3012 9.5C11.3012 8.156 11.7512 7.034 12.6512 6.134C13.5512 5.222 14.6792 4.766 16.0352 4.766C16.9232 4.766 17.7212 4.982 18.4292 5.414C19.1372 5.834 19.6652 6.404 20.0132 7.124L18.6992 7.88C18.4712 7.4 18.1172 7.016 17.6372 6.728C17.1692 6.44 16.6352 6.296 16.0352 6.296C15.1352 6.296 14.3792 6.602 13.7672 7.214C13.1672 7.826 12.8672 8.588 12.8672 9.5C12.8672 10.4 13.1672 11.156 13.7672 11.768C14.3792 12.38 15.1352 12.686 16.0352 12.686C16.6352 12.686 17.1752 12.548 17.6552 12.272C18.1352 11.984 18.5012 11.6 18.7532 11.12L20.0852 11.894C19.7012 12.602 19.1492 13.172 18.4292 13.604C17.7092 14.024 16.9112 14.234 16.0352 14.234ZM23.2149 6.512C23.7309 5.396 24.6669 4.838 26.0229 4.838V6.476C25.2549 6.44 24.5949 6.644 24.0429 7.088C23.4909 7.532 23.2149 8.246 23.2149 9.23V14H21.6489V5H23.2149V6.512ZM34.659 12.866C33.735 13.778 32.613 14.234 31.293 14.234C29.973 14.234 28.851 13.778 27.927 12.866C27.015 11.954 26.559 10.832 26.559 9.5C26.559 8.168 27.015 7.046 27.927 6.134C28.851 5.222 29.973 4.766 31.293 4.766C32.613 4.766 33.735 5.222 34.659 6.134C35.583 7.046 36.045 8.168 36.045 9.5C36.045 10.832 35.583 11.954 34.659 12.866ZM31.293 12.704C32.193 12.704 32.949 12.398 33.561 11.786C34.173 11.174 34.479 10.412 34.479 9.5C34.479 8.588 34.173 7.826 33.561 7.214C32.949 6.602 32.193 6.296 31.293 6.296C30.405 6.296 29.655 6.602 29.043 7.214C28.431 7.826 28.125 8.588 28.125 9.5C28.125 10.412 28.431 11.174 29.043 11.786C29.655 12.398 30.405 12.704 31.293 12.704ZM37.8911 14V0.86H39.4571V14H37.8911ZM41.8462 14V0.86H43.4122V14H41.8462ZM55.2693 4.766C56.5293 4.766 57.6033 5.228 58.4913 6.152C59.3793 7.064 59.8233 8.18 59.8233 9.5C59.8233 10.82 59.3793 11.942 58.4913 12.866C57.6033 13.778 56.5293 14.234 55.2693 14.234C53.7813 14.234 52.6473 13.64 51.8673 12.452V14H50.3013V1.4H51.8673V6.548C52.6473 5.36 53.7813 4.766 55.2693 4.766ZM55.0713 12.722C55.9713 12.722 56.7273 12.416 57.3393 11.804C57.9513 11.18 58.2573 10.412 58.2573 9.5C58.2573 8.588 57.9513 7.826 57.3393 7.214C56.7273 6.59 55.9713 6.278 55.0713 6.278C54.1593 6.278 53.3973 6.59 52.7853 7.214C52.1733 7.826 51.8673 8.588 51.8673 9.5C51.8673 10.412 52.1733 11.18 52.7853 11.804C53.3973 12.416 54.1593 12.722 55.0713 12.722ZM62.7899 10.22C62.9459 11.024 63.3119 11.648 63.8879 12.092C64.4759 12.536 65.1959 12.758 66.0479 12.758C67.2359 12.758 68.0999 12.32 68.6399 11.444L69.9719 12.2C69.0959 13.556 67.7759 14.234 66.0119 14.234C64.5839 14.234 63.4199 13.79 62.5199 12.902C61.6319 12.002 61.1879 10.868 61.1879 9.5C61.1879 8.144 61.6259 7.016 62.5019 6.116C63.3779 5.216 64.5119 4.766 65.9039 4.766C67.2239 4.766 68.2979 5.234 69.1259 6.17C69.9659 7.094 70.3859 8.21 70.3859 9.518C70.3859 9.746 70.3679 9.98 70.3319 10.22H62.7899ZM65.9039 6.242C65.0639 6.242 64.3679 6.482 63.8159 6.962C63.2639 7.43 62.9219 8.06 62.7899 8.852H68.8019C68.6699 8 68.3339 7.352 67.7939 6.908C67.2539 6.464 66.6239 6.242 65.9039 6.242ZM72.186 14V0.86H73.752V14H72.186ZM83.7371 12.866C82.8131 13.778 81.6911 14.234 80.3711 14.234C79.0511 14.234 77.9291 13.778 77.0051 12.866C76.0931 11.954 75.6371 10.832 75.6371 9.5C75.6371 8.168 76.0931 7.046 77.0051 6.134C77.9291 5.222 79.0511 4.766 80.3711 4.766C81.6911 4.766 82.8131 5.222 83.7371 6.134C84.6611 7.046 85.1231 8.168 85.1231 9.5C85.1231 10.832 84.6611 11.954 83.7371 12.866ZM80.3711 12.704C81.2711 12.704 82.0271 12.398 82.6391 11.786C83.2511 11.174 83.5571 10.412 83.5571 9.5C83.5571 8.588 83.2511 7.826 82.6391 7.214C82.0271 6.602 81.2711 6.296 80.3711 6.296C79.4831 6.296 78.7331 6.602 78.1211 7.214C77.5091 7.826 77.2031 8.588 77.2031 9.5C77.2031 10.412 77.5091 11.174 78.1211 11.786C78.7331 12.398 79.4831 12.704 80.3711 12.704ZM97.2197 5H98.8577L96.0677 14H94.4657L92.3597 7.34L90.2537 14H88.6517L85.8617 5H87.4997L89.4797 11.84L91.6037 5H93.1157L95.2397 11.858L97.2197 5ZM109.865 6.512H107.471V11.39C107.471 11.834 107.555 12.152 107.723 12.344C107.903 12.524 108.173 12.62 108.533 12.632C108.893 12.632 109.337 12.62 109.865 12.596V14C108.497 14.18 107.495 14.072 106.859 13.676C106.223 13.268 105.905 12.506 105.905 11.39V6.512H104.123V5H105.905V2.948L107.471 2.48V5H109.865V6.512ZM118.858 12.866C117.934 13.778 116.812 14.234 115.492 14.234C114.172 14.234 113.05 13.778 112.126 12.866C111.214 11.954 110.758 10.832 110.758 9.5C110.758 8.168 111.214 7.046 112.126 6.134C113.05 5.222 114.172 4.766 115.492 4.766C116.812 4.766 117.934 5.222 118.858 6.134C119.782 7.046 120.244 8.168 120.244 9.5C120.244 10.832 119.782 11.954 118.858 12.866ZM115.492 12.704C116.392 12.704 117.148 12.398 117.76 11.786C118.372 11.174 118.678 10.412 118.678 9.5C118.678 8.588 118.372 7.826 117.76 7.214C117.148 6.602 116.392 6.296 115.492 6.296C114.604 6.296 113.854 6.602 113.242 7.214C112.63 7.826 112.324 8.588 112.324 9.5C112.324 10.412 112.63 11.174 113.242 11.786C113.854 12.398 114.604 12.704 115.492 12.704ZM132.89 5H134.582L130.982 14H129.146L125.546 5H127.238L130.064 12.326L132.89 5ZM136.699 3.362C136.399 3.362 136.147 3.26 135.943 3.056C135.739 2.852 135.637 2.606 135.637 2.318C135.637 2.03 135.739 1.784 135.943 1.58C136.147 1.364 136.399 1.256 136.699 1.256C136.987 1.256 137.233 1.364 137.437 1.58C137.641 1.784 137.743 2.03 137.743 2.318C137.743 2.606 137.641 2.852 137.437 3.056C137.233 3.26 136.987 3.362 136.699 3.362ZM135.907 14V5H137.473V14H135.907ZM140.96 10.22C141.116 11.024 141.482 11.648 142.058 12.092C142.646 12.536 143.366 12.758 144.218 12.758C145.406 12.758 146.27 12.32 146.81 11.444L148.142 12.2C147.266 13.556 145.946 14.234 144.182 14.234C142.754 14.234 141.59 13.79 140.69 12.902C139.802 12.002 139.358 10.868 139.358 9.5C139.358 8.144 139.796 7.016 140.672 6.116C141.548 5.216 142.682 4.766 144.074 4.766C145.394 4.766 146.468 5.234 147.296 6.17C148.136 7.094 148.556 8.21 148.556 9.518C148.556 9.746 148.538 9.98 148.502 10.22H140.96ZM144.074 6.242C143.234 6.242 142.538 6.482 141.986 6.962C141.434 7.43 141.092 8.06 140.96 8.852H146.972C146.84 8 146.504 7.352 145.964 6.908C145.424 6.464 144.794 6.242 144.074 6.242ZM160.606 5H162.244L159.454 14H157.852L155.746 7.34L153.64 14H152.038L149.248 5H150.886L152.866 11.84L154.99 5H156.502L158.626 11.858L160.606 5Z" fill="#909093"/>
<path d="M180.308 1.4V14H178.652V4.154L174.53 11.012H174.314L170.192 4.172V14H168.518V1.4H170.408L174.422 8.06L178.418 1.4H180.308ZM189.122 5H190.796L187.124 14.558C186.74 15.578 186.2 16.352 185.504 16.88C184.82 17.42 184.028 17.66 183.128 17.6V16.142C184.232 16.226 185.042 15.614 185.558 14.306L185.72 13.964L181.796 5H183.47L186.53 12.056L189.122 5ZM199.484 14L195.866 1.4H197.63L200.51 11.768L203.57 1.4H205.262L208.322 11.768L211.202 1.4H212.966L209.348 14H207.404L204.416 3.938L201.428 14H199.484ZM221.128 12.866C220.204 13.778 219.082 14.234 217.762 14.234C216.442 14.234 215.32 13.778 214.396 12.866C213.484 11.954 213.028 10.832 213.028 9.5C213.028 8.168 213.484 7.046 214.396 6.134C215.32 5.222 216.442 4.766 217.762 4.766C219.082 4.766 220.204 5.222 221.128 6.134C222.052 7.046 222.514 8.168 222.514 9.5C222.514 10.832 222.052 11.954 221.128 12.866ZM217.762 12.704C218.662 12.704 219.418 12.398 220.03 11.786C220.642 11.174 220.948 10.412 220.948 9.5C220.948 8.588 220.642 7.826 220.03 7.214C219.418 6.602 218.662 6.296 217.762 6.296C216.874 6.296 216.124 6.602 215.512 7.214C214.9 7.826 214.594 8.588 214.594 9.5C214.594 10.412 214.9 11.174 215.512 11.786C216.124 12.398 216.874 12.704 217.762 12.704ZM225.926 6.512C226.442 5.396 227.378 4.838 228.734 4.838V6.476C227.966 6.44 227.306 6.644 226.754 7.088C226.202 7.532 225.926 8.246 225.926 9.23V14H224.36V5H225.926V6.512ZM237.88 14H235.936L231.832 9.734V14H230.266V1.4H231.832V8.978L235.72 5H237.736L233.434 9.356L237.88 14ZM240.001 7.43C240.001 7.778 240.175 8.06 240.523 8.276C240.871 8.48 241.291 8.648 241.783 8.78C242.275 8.9 242.767 9.044 243.259 9.212C243.751 9.368 244.171 9.644 244.519 10.04C244.867 10.424 245.041 10.922 245.041 11.534C245.041 12.35 244.723 13.004 244.087 13.496C243.463 13.988 242.659 14.234 241.675 14.234C240.799 14.234 240.049 14.042 239.425 13.658C238.801 13.274 238.357 12.764 238.093 12.128L239.443 11.354C239.587 11.786 239.857 12.128 240.253 12.38C240.649 12.632 241.123 12.758 241.675 12.758C242.191 12.758 242.617 12.662 242.953 12.47C243.289 12.266 243.457 11.954 243.457 11.534C243.457 11.186 243.283 10.91 242.935 10.706C242.587 10.49 242.167 10.322 241.675 10.202C241.183 10.07 240.691 9.92 240.199 9.752C239.707 9.584 239.287 9.308 238.939 8.924C238.591 8.54 238.417 8.048 238.417 7.448C238.417 6.668 238.717 6.026 239.317 5.522C239.929 5.018 240.691 4.766 241.603 4.766C242.335 4.766 242.983 4.934 243.547 5.27C244.123 5.594 244.555 6.05 244.843 6.638L243.529 7.376C243.205 6.608 242.563 6.224 241.603 6.224C241.159 6.224 240.781 6.332 240.469 6.548C240.157 6.752 240.001 7.046 240.001 7.43Z" fill="#CD923F"/>
</svg>
