<svg width="348" height="58" viewBox="0 0 348 58" fill="none" xmlns="http://www.w3.org/2000/svg">
<path opacity="0.1" fill-rule="evenodd" clip-rule="evenodd" d="M0 29C0 12.9837 12.9837 0 29 0C45.0163 0 58 12.9837 58 29C58 45.0163 45.0163 58 29 58C12.9837 58 0 45.0163 0 29Z" fill="#B27038"/>
<path fill-rule="evenodd" clip-rule="evenodd" d="M29.0013 13.5337C24.8008 13.5337 24.2736 13.5521 22.6238 13.6271C20.9773 13.7025 19.8533 13.9632 18.8699 14.3457C17.8526 14.7407 16.9897 15.2692 16.13 16.1292C15.2697 16.9889 14.7412 17.8518 14.3449 18.8688C13.9614 19.8525 13.7004 20.9768 13.6263 22.6227C13.5525 24.2725 13.5332 24.8 13.5332 29.0005C13.5332 33.201 13.5519 33.7266 13.6266 35.3764C13.7024 37.023 13.9631 38.1469 14.3452 39.1303C14.7406 40.1476 15.269 41.0105 16.1291 41.8702C16.9884 42.7305 17.8513 43.2603 18.868 43.6553C19.852 44.0378 20.9763 44.2985 22.6225 44.3739C24.2723 44.449 24.7992 44.4673 28.9994 44.4673C33.2002 44.4673 33.7258 44.449 35.3756 44.3739C37.0222 44.2985 38.1474 44.0378 39.1315 43.6553C40.1484 43.2603 41.01 42.7305 41.8694 41.8702C42.7297 41.0105 43.2582 40.1476 43.6545 39.1306C44.0348 38.1469 44.2958 37.0226 44.3731 35.3767C44.4472 33.7269 44.4665 33.201 44.4665 29.0005C44.4665 24.8 44.4472 24.2728 44.3731 22.623C44.2958 20.9765 44.0348 19.8525 43.6545 18.8691C43.2582 17.8518 42.7297 16.9889 41.8694 16.1292C41.0091 15.2689 40.1487 14.7404 39.1305 14.3457C38.1445 13.9632 37.0199 13.7025 35.3733 13.6271C33.7235 13.5521 33.1983 13.5337 28.9965 13.5337H29.0013ZM27.6138 16.3209C28.0256 16.3203 28.485 16.3209 29.0013 16.3209C33.1309 16.3209 33.6204 16.3357 35.2511 16.4098C36.7592 16.4788 37.5776 16.7308 38.1228 16.9425C38.8446 17.2228 39.3592 17.5579 39.9002 18.0993C40.4416 18.6406 40.7767 19.1562 41.0576 19.8779C41.2693 20.4225 41.5217 21.241 41.5903 22.749C41.6644 24.3794 41.6805 24.8692 41.6805 28.9969C41.6805 33.1246 41.6644 33.6144 41.5903 35.2449C41.5213 36.7529 41.2693 37.5714 41.0576 38.1159C40.7773 38.8377 40.4416 39.3517 39.9002 39.8927C39.3589 40.434 38.8449 40.7691 38.1228 41.0495C37.5783 41.2621 36.7592 41.5135 35.2511 41.5824C33.6207 41.6565 33.1309 41.6726 29.0013 41.6726C24.8713 41.6726 24.3818 41.6565 22.7514 41.5824C21.2434 41.5128 20.4249 41.2608 19.8794 41.0491C19.1576 40.7688 18.642 40.4337 18.1007 39.8923C17.5593 39.351 17.2242 38.8367 16.9433 38.1146C16.7315 37.5701 16.4792 36.7516 16.4106 35.2436C16.3365 33.6131 16.3217 33.1234 16.3217 28.9931C16.3217 24.8628 16.3365 24.3756 16.4106 22.7451C16.4796 21.2371 16.7315 20.4186 16.9433 19.8734C17.2236 19.1517 17.5593 18.6361 18.1007 18.0948C18.642 17.5534 19.1576 17.2183 19.8794 16.9373C20.4246 16.7246 21.2434 16.4733 22.7514 16.404C24.1782 16.3396 24.7311 16.3203 27.6138 16.317V16.3209ZM37.2573 18.889C36.2327 18.889 35.4013 19.7194 35.4013 20.7444C35.4013 21.7691 36.2327 22.6004 37.2573 22.6004C38.282 22.6004 39.1133 21.7691 39.1133 20.7444C39.1133 19.7197 38.282 18.889 37.2573 18.889ZM29.0013 21.0576C24.6149 21.0576 21.0585 24.614 21.0585 29.0005C21.0585 33.3869 24.6149 36.9417 29.0013 36.9417C33.3878 36.9417 36.9429 33.3869 36.9429 29.0005C36.9429 24.614 33.3878 21.0576 29.0013 21.0576ZM29.0013 23.8449C31.8485 23.8449 34.1569 26.153 34.1569 29.0005C34.1569 31.8477 31.8485 34.1561 29.0013 34.1561C26.1538 34.1561 23.8457 31.8477 23.8457 29.0005C23.8457 26.153 26.1538 23.8449 29.0013 23.8449Z" fill="#B27038"/>
<path opacity="0.1" fill-rule="evenodd" clip-rule="evenodd" d="M96.6665 29C96.6665 12.9837 109.65 0 125.667 0C141.683 0 154.667 12.9837 154.667 29C154.667 45.0163 141.683 58 125.667 58C109.65 58 96.6665 45.0163 96.6665 29Z" fill="#B27038"/>
<path fill-rule="evenodd" clip-rule="evenodd" d="M141.133 28.9789C141.133 30.0249 141.027 31.0694 140.817 32.0876C140.613 33.0816 140.311 34.0574 139.916 34.9903C139.529 35.9067 139.049 36.7898 138.489 37.6133C137.937 38.4316 137.301 39.1993 136.602 39.8992C135.902 40.596 135.132 41.2302 134.314 41.7846C133.488 42.3411 132.603 42.82 131.686 43.2084C130.752 43.6021 129.774 43.9037 128.781 44.1073C127.762 44.317 126.713 44.4241 125.666 44.4241C124.617 44.4241 123.569 44.317 122.551 44.1073C121.556 43.9037 120.578 43.6021 119.645 43.2084C118.728 42.82 117.843 42.3411 117.017 41.7846C116.199 41.2302 115.428 40.596 114.73 39.8992C114.03 39.1993 113.394 38.4316 112.842 37.6133C112.284 36.7898 111.804 35.9066 111.416 34.9903C111.02 34.0574 110.717 33.0815 110.512 32.0876C110.305 31.0694 110.2 30.0249 110.2 28.9789C110.2 27.9322 110.305 26.8854 110.512 25.8695C110.717 24.8755 111.02 23.8981 111.416 22.9667C111.804 22.0497 112.284 21.1658 112.842 20.3423C113.394 19.5233 114.03 18.757 114.73 18.0564C115.428 17.3595 116.199 16.7268 117.017 16.1733C117.843 15.6144 118.728 15.1356 119.645 14.7464C120.578 14.3519 121.556 14.0495 122.551 13.8474C123.569 13.6393 124.617 13.5337 125.666 13.5337C126.713 13.5337 127.762 13.6393 128.781 13.8474C129.774 14.0496 130.752 14.352 131.687 14.7464C132.603 15.1355 133.488 15.6144 134.314 16.1733C135.132 16.7268 135.902 17.3595 136.602 18.0564C137.301 18.757 137.937 19.5233 138.489 20.3423C139.049 21.1658 139.529 22.0498 139.916 22.9667C140.311 23.8981 140.613 24.8755 140.817 25.8695C141.027 26.8854 141.133 27.9322 141.133 28.9789ZM120.03 17.0488C116.347 18.7857 113.597 22.1749 112.74 26.2594C113.088 26.2624 118.593 26.3318 124.935 24.6492C122.648 20.5933 120.206 17.2834 120.03 17.0488ZM126.029 26.6803C119.228 28.7134 112.702 28.5671 112.468 28.5581C112.464 28.6999 112.457 28.8371 112.457 28.9789C112.457 32.3673 113.737 35.4563 115.841 37.792C115.837 37.7852 119.451 31.3816 126.579 29.08C126.752 29.0227 126.927 28.9713 127.101 28.9216C126.769 28.172 126.407 27.4208 126.029 26.6803ZM134.389 19.0798C132.063 17.0322 129.01 15.7902 125.666 15.7902C124.592 15.7902 123.551 15.9199 122.553 16.1597C122.751 16.4252 125.232 19.7118 127.491 23.8536C132.475 21.9878 134.356 19.128 134.389 19.0798ZM128.001 31.1071C127.971 31.1169 127.942 31.1253 127.913 31.1358C120.12 33.8487 117.575 39.3161 117.548 39.3757C119.79 41.1171 122.602 42.1676 125.666 42.1676C127.495 42.1676 129.237 41.7957 130.822 41.1224C130.627 39.97 129.86 35.9307 128.001 31.1071ZM133.047 39.9172C136.012 37.9187 138.119 34.7453 138.706 31.0694C138.435 30.9819 134.739 29.8137 130.476 30.4962C132.208 35.2505 132.912 39.1224 133.047 39.9172ZM128.508 25.819C128.814 26.4479 129.111 27.0881 129.385 27.7315C129.483 27.9623 129.578 28.1886 129.671 28.4148C134.208 27.8446 138.679 28.8039 138.87 28.8431C138.84 25.7164 137.719 22.8468 135.866 20.6002C135.841 20.6355 133.723 23.6922 128.508 25.819Z" fill="#B27038"/>
<path opacity="0.1" fill-rule="evenodd" clip-rule="evenodd" d="M193.333 29C193.333 12.9837 206.317 0 222.333 0C238.35 0 251.333 12.9837 251.333 29C251.333 45.0163 238.35 58 222.333 58C206.317 58 193.333 45.0163 193.333 29Z" fill="#B27038"/>
<path fill-rule="evenodd" clip-rule="evenodd" d="M221.465 23.5715L221.526 24.5749L220.512 24.4521C216.82 23.981 213.594 22.3837 210.856 19.701L209.517 18.3698L209.172 19.3528C208.442 21.5441 208.909 23.8582 210.43 25.4146C211.241 26.2747 211.059 26.3976 209.659 25.8856C209.172 25.7217 208.746 25.5989 208.706 25.6603C208.564 25.8037 209.051 27.6672 209.436 28.4045C209.963 29.4284 211.039 30.4319 212.215 31.0258L213.209 31.4968L212.032 31.5173C210.897 31.5173 210.856 31.5378 210.978 31.9678C211.383 33.2989 212.986 34.712 214.771 35.3263L216.029 35.7564L214.933 36.4117C213.31 37.3538 211.404 37.8862 209.497 37.9272C208.584 37.9476 207.833 38.0296 207.833 38.091C207.833 38.2958 210.308 39.4426 211.748 39.8931C216.069 41.2243 221.201 40.6509 225.055 38.3777C227.794 36.7599 230.532 33.5447 231.81 30.4319C232.5 28.7731 233.19 25.7422 233.19 24.2882C233.19 23.3462 233.25 23.2233 234.386 22.097C235.056 21.4417 235.685 20.7249 235.806 20.5201C236.009 20.131 235.989 20.131 234.954 20.4792C233.23 21.0935 232.987 21.0116 233.839 20.0901C234.468 19.4347 235.218 18.247 235.218 17.8988C235.218 17.8374 234.914 17.9398 234.569 18.1241C234.204 18.3289 233.392 18.6361 232.784 18.8204L231.689 19.1685L230.695 18.4927C230.147 18.1241 229.376 17.7145 228.97 17.5916C227.936 17.3049 226.354 17.3459 225.421 17.6735C222.885 18.5951 221.282 20.9706 221.465 23.5715Z" fill="#B27038"/>
<path opacity="0.1" fill-rule="evenodd" clip-rule="evenodd" d="M290 29C290 12.9837 302.984 0 319 0C335.016 0 348 12.9837 348 29C348 45.0163 335.016 58 319 58C302.984 58 290 45.0163 290 29Z" fill="#B27038"/>
<path d="M331.363 31.7241V40.356H326.359V32.302C326.359 30.2782 325.635 28.8979 323.824 28.8979C322.441 28.8979 321.618 29.829 321.256 30.7286C321.124 31.0503 321.09 31.4983 321.09 31.9487V40.356H316.083C316.083 40.356 316.151 26.7162 316.083 25.3019H321.09V27.4356L321.057 27.4847H321.09V27.4356C321.754 26.412 322.942 24.9486 325.601 24.9486C328.894 24.9486 331.363 27.1011 331.363 31.7241ZM310.847 18.0457C309.136 18.0457 308.015 19.1687 308.015 20.6461C308.015 22.0908 309.103 23.2477 310.782 23.2477H310.814C312.561 23.2477 313.645 22.0908 313.645 20.6461C313.615 19.1687 312.562 18.0457 310.848 18.0457H310.847ZM308.312 40.356H313.317V25.3019H308.312V40.356Z" fill="#B27038"/>
</svg>
