<svg width="60" height="60" viewBox="0 0 60 60" fill="none" xmlns="http://www.w3.org/2000/svg">
<path d="M8.30393 42.5969L9.19898 49.2369C9.70663 53.0028 13.193 55.6609 16.9589 55.1533L23.5989 54.2582L28.9408 58.3311C30.4029 59.4458 32.234 59.9305 34.0427 59.6867C35.8513 59.4429 37.4888 58.4906 38.6034 57.0286L42.6763 51.6866L49.3163 50.7915C53.0822 50.2839 55.7403 46.7975 55.2326 43.0316L54.3376 36.3917L58.4104 31.0497C59.5251 29.5877 60.0098 27.7565 59.766 25.9479C59.5222 24.1392 58.57 22.5018 57.1079 21.3871L51.766 17.3142L50.8709 10.6743C50.3633 6.90832 46.8769 4.25024 43.111 4.75789L36.471 5.65294L31.1291 1.58007C28.205 -0.649288 23.6958 -0.0414512 21.4664 2.88258L17.3936 8.22456L10.7536 9.11961C6.98769 9.62726 4.32961 13.1136 4.83726 16.8795L5.73231 23.5195L1.65944 28.8615C0.544763 30.3235 0.0600447 32.1546 0.303847 33.9633C0.54765 35.7719 1.49993 37.4094 2.96195 38.5241L8.30393 42.5969ZM28.0311 15.09C30.0132 14.8228 31.971 14.9373 33.8236 15.3939C34.5822 15.5944 35.1217 16.228 35.2219 16.9713C35.3254 17.7393 34.9482 18.4965 34.2664 18.8659C30.5589 20.9297 26.846 25.0123 27.5574 30.2896C28.2687 35.5668 32.9301 38.5206 37.0518 39.529C37.807 39.7047 38.3713 40.335 38.4748 41.103C38.575 41.8463 38.2225 42.6001 37.5441 42.9943C35.8785 43.9251 34.0209 44.5539 32.0388 44.8211C23.4168 45.9834 16.3316 40.5814 15.1694 31.9594C14.0072 23.3374 19.4091 16.2523 28.0311 15.09Z" fill="#576172"/>
</svg>
